HIERARCHY
ROOT Hips
{
	OFFSET 0.00000 0.00000 0.00000
	CHANNELS 6 Xposition Yposition Zposition Zrotation Yrotation Xrotation 
	JOINT LHipJoint
	{
		OFFSET 0 0 0
		CHANNELS 3 Zrotation Yrotation Xrotation
		JOINT LeftUpLeg
		{
			OFFSET 1.39187 -1.60231 0.69152
			CHANNELS 3 Zrotation Yrotation Xrotation
			JOINT LeftLeg
			{
				OFFSET 2.43314 -6.68499 0.00000
				CHANNELS 3 Zrotation Yrotation Xrotation
				JOINT LeftFoot
				{
					OFFSET 2.32059 -6.37578 0.00000
					CHANNELS 3 Zrotation Yrotation Xrotation
					JOINT LeftToeBase
					{
						OFFSET 0.23021 -0.63250 1.71305
						CHANNELS 3 Zrotation Yrotation Xrotation
						End Site
						{
							OFFSET 0.00000 -0.00000 0.91647
						}
					}
				}
			}
		}
	}
	JOINT RHipJoint
	{
		OFFSET 0 0 0
		CHANNELS 3 Zrotation Yrotation Xrotation
		JOINT RightUpLeg
		{
			OFFSET -1.19407 -1.60231 0.69152
			CHANNELS 3 Zrotation Yrotation Xrotation
			JOINT RightLeg
			{
				OFFSET -2.44411 -6.71513 0.00000
				CHANNELS 3 Zrotation Yrotation Xrotation
				JOINT RightFoot
				{
					OFFSET -2.31924 -6.37207 0.00000
					CHANNELS 3 Zrotation Yrotation Xrotation
					JOINT RightToeBase
					{
						OFFSET -0.19473 -0.53502 1.87724
						CHANNELS 3 Zrotation Yrotation Xrotation
						End Site
						{
							OFFSET -0.00000 -0.00000 0.98293
						}
					}
				}
			}
		}
	}
	JOINT LowerBack
	{
		OFFSET 0 0 0
		CHANNELS 3 Zrotation Yrotation Xrotation
		JOINT Spine
		{
			OFFSET -0.01120 1.87307 0.09613
			CHANNELS 3 Zrotation Yrotation Xrotation
			JOINT Spine1
			{
				OFFSET 0.01099 1.87818 0.04834
				CHANNELS 3 Zrotation Yrotation Xrotation
				JOINT Neck
				{
					OFFSET 0 0 0
					CHANNELS 3 Zrotation Yrotation Xrotation
					JOINT Neck1
					{
						OFFSET 0.01702 1.40324 -0.12579
						CHANNELS 3 Zrotation Yrotation Xrotation
						JOINT Head
						{
							OFFSET -0.04239 1.38587 -0.01614
							CHANNELS 3 Zrotation Yrotation Xrotation
							End Site
							{
								OFFSET -0.02510 1.47031 -0.00154
							}
						}
					}
				}
				JOINT LeftShoulder
				{
					OFFSET 0 0 0
					CHANNELS 3 Zrotation Yrotation Xrotation
					JOINT LeftArm
					{
						OFFSET 2.95699 0.62343 0.11653
						CHANNELS 3 Zrotation Yrotation Xrotation
						JOINT LeftForeArm
						{
							OFFSET 4.68382 -0.00000 -0.00000
							CHANNELS 3 Zrotation Yrotation Xrotation
							JOINT LeftHand
							{
								OFFSET 2.98124 -0.00000 -0.00000
								CHANNELS 3 Zrotation Yrotation Xrotation
								JOINT LeftFingerBase
								{
									OFFSET 0 0 0
									CHANNELS 3 Zrotation Yrotation Xrotation
									JOINT LeftHandIndex1
									{
										OFFSET 0.70759 -0.00000 0.00000
										CHANNELS 3 Zrotation Yrotation Xrotation
										End Site
										{
											OFFSET 0.57048 -0.00000 0.00000
										}
									}
								}
								JOINT LThumb
								{
									OFFSET 0 0 0
									CHANNELS 3 Zrotation Yrotation Xrotation
									End Site
									{
										OFFSET 0.57919 -0.00000 0.57919
									}
								}
							}
						}
					}
				}
				JOINT RightShoulder
				{
					OFFSET 0 0 0
					CHANNELS 3 Zrotation Yrotation Xrotation
					JOINT RightArm
					{
						OFFSET -2.99027 0.88714 -0.02793
						CHANNELS 3 Zrotation Yrotation Xrotation
						JOINT RightForeArm
						{
							OFFSET -4.75876 -0.00000 -0.00000
							CHANNELS 3 Zrotation Yrotation Xrotation
							JOINT RightHand
							{
								OFFSET -2.93293 -0.00000 -0.00000
								CHANNELS 3 Zrotation Yrotation Xrotation
								JOINT RightFingerBase
								{
									OFFSET 0 0 0
									CHANNELS 3 Zrotation Yrotation Xrotation
									JOINT RightHandIndex1
									{
										OFFSET -0.83175 -0.00000 0.00000
										CHANNELS 3 Zrotation Yrotation Xrotation
										End Site
										{
											OFFSET -0.67058 -0.00000 0.00000
										}
									}
								}
								JOINT RThumb
								{
									OFFSET 0 0 0
									CHANNELS 3 Zrotation Yrotation Xrotation
									End Site
									{
										OFFSET -0.68082 -0.00000 0.68082
									}
								}
							}
						}
					}
				}
			}
		}
	}
}
MOTION
Frames: 11
Frame Time: .0083333
9.4539 16.5085 3.0208 0 0 0 0 0 0 -21 0 0 0 0 0 0 0 0 0 0 0 0 0 0 21 0 0 0 0 0 0 0 0 0 0 0 0 0 0 0 0 0 0 0 0 0 0 -16 0 0 21 0 0 11 0 0 0 -8 0 0 0 0 0 0 0 0 0 0 0 0 0 0 0 0 0 0 0 0 8 0 0 0 0 0 0 0 0 0 0 0 0 0 0 0 0 0
9.4539 16.5085 3.0208 173.7530 65.0839 -170.7840 0.0000 0.0000 0.0000 -22.6572 -13.5801 -12.4124 1.6004 7.9788 22.6497 1.7508 3.4140 -26.4152 0.1789 2.7247 7.5133 0.0000 0.0000 0.0000 17.2983 12.9151 -27.1830 -2.7889 -10.3452 30.1019 -0.1184 -10.7096 -16.9200 -0.3340 3.7142 -10.2738 -5.7932 -0.0078 -13.4670 -0.4957 1.0684 -5.0094 2.9144 0.7138 2.1782 -3.4382 1.3354 5.5975 4.6433 1.7634 -3.5982 2.0295 0.8076 -2.2025 0.0000 0.0000 0.0000 -93.3812 -3.4701 -20.4073 5.9956 -10.2548 -0.5385 -0.0000 -0.0000 60.3752 6.6212 23.3247 2.6315 -7.1250 0.0000 -0.0000 -22.8312 51.9734 -4.0966 0.0000 0.0000 0.0000 94.8909 0.0799 -11.4107 -8.1263 13.7574 -0.9819 0.0000 0.0000 38.5545 -14.7137 12.1382 -3.1605 7.1250 -0.0000 -0.0000 8.6964 -17.5297 5.7400
9.4961 16.5099 3.0244 173.8670 65.0915 -170.6510 0.0000 0.0000 0.0000 -22.5519 -13.9022 -12.1282 1.5968 7.9702 22.6237 1.7511 3.7239 -26.5645 0.2486 3.2085 8.8599 0.0000 0.0000 0.0000 17.4759 12.9446 -26.8800 -2.7629 -10.3009 29.9567 -0.1458 -10.7822 -17.3675 -0.3606 3.8578 -10.6770 -5.8416 -0.0045 -13.6080 -0.4113 1.0837 -4.9169 3.0364 0.7130 2.3469 -3.5545 1.3860 5.6254 4.6986 1.8314 -3.8227 2.0683 0.8406 -2.2881 -0.0000 -0.0000 0.0000 -93.6048 -3.5879 -20.2210 6.0911 -10.4140 -0.5556 -0.0000 -0.0000 60.0712 6.7122 23.2055 2.6551 -7.1250 0.0000 -0.0000 -22.6804 51.8790 -4.0129 -0.0000 -0.0000 0.0000 94.7793 0.1970 -12.0685 -8.1297 13.7629 -0.9828 0.0000 0.0000 38.8547 -14.4781 11.9533 -3.0612 7.1250 -0.0000 -0.0000 8.8623 -17.7337 5.8120
9.5384 16.5121 3.0281 173.8380 65.0990 -170.5470 0.0000 0.0000 0.0000 -22.4936 -14.2769 -11.9609 1.5977 7.9723 22.6300 1.7239 4.0790 -26.5465 0.3065 3.5592 9.8396 0.0000 0.0000 0.0000 17.5614 12.9406 -26.7573 -2.7477 -10.2750 29.8720 -0.1765 -10.7426 -17.7048 -0.3607 3.8582 -10.6782 -5.7474 -0.0044 -13.4901 -0.4995 1.0732 -5.1090 2.8845 0.7239 2.0868 -3.1861 1.3442 5.5544 4.3883 1.7834 -3.6535 1.8991 0.8205 -2.2046 -0.0000 0.0000 0.0000 -93.5245 -3.2684 -18.8448 6.2140 -10.6186 -0.5780 -0.0000 -0.0000 58.3624 6.5633 23.1775 2.5928 -7.1250 0.0000 -0.0000 -22.8057 51.8284 -4.0078 -0.0000 0.0000 0.0000 94.8820 -0.0554 -12.8327 -8.0611 13.6518 -0.9665 0.0000 0.0000 39.5716 -14.2999 12.0205 -3.0387 7.1250 -0.0000 -0.0000 8.9854 -17.6771 5.9060
9.5831 16.5132 3.0350 173.7480 65.0767 -170.5180 0.0000 0.0000 0.0000 -22.4608 -14.4143 -11.9325 1.6118 8.0057 22.7315 1.6816 4.3779 -26.3973 0.2411 3.1601 8.7247 0.0000 0.0000 0.0000 17.6004 13.0252 -26.6573 -2.7327 -10.2492 29.7875 -0.1767 -10.8631 -17.8545 -0.3379 3.7353 -10.3332 -5.7647 -0.0490 -13.4727 -0.5266 1.0213 -5.2235 2.8564 0.7080 1.9621 -2.9772 1.3427 5.6321 4.1414 1.7851 -3.7671 1.7809 0.8232 -2.2484 -0.0000 0.0000 0.0000 -93.5220 -2.9784 -16.7181 6.3660 -10.8712 -0.6064 -0.0000 -0.0000 55.9303 6.3575 23.5976 2.5538 -7.1250 0.0000 -0.0000 -23.2308 52.1796 -4.2963 -0.0000 0.0000 0.0000 94.8625 -0.2268 -13.3671 -7.9983 13.5500 -0.9517 0.0000 0.0000 40.1605 -14.0911 11.8886 -2.9603 7.1250 -0.0000 -0.0000 9.1325 -17.8248 5.9752
9.6300 16.5109 3.0410 173.6810 65.0133 -170.5230 0.0000 0.0000 0.0000 -22.4227 -14.4094 -12.0033 1.6458 8.0857 22.9747 1.6613 4.4900 -26.3105 0.1761 2.7031 7.4531 0.0000 0.0000 0.0000 17.6733 13.0549 -26.5028 -2.7227 -10.2321 29.7315 -0.1632 -11.0801 -17.9556 -0.3444 3.7707 -10.4324 -5.7607 -0.0876 -13.4846 -0.5438 0.9732 -5.2569 2.8290 0.6867 1.9383 -3.1408 1.4201 5.7722 4.3200 1.8897 -3.9929 1.8670 0.8709 -2.3595 0.0000 0.0000 0.0000 -93.5732 -2.9077 -16.0169 6.4432 -10.9994 -0.6210 -0.0000 -0.0000 55.0825 6.2364 23.7069 2.5157 -7.1250 0.0000 -0.0000 -23.4062 52.2592 -4.3790 0.0000 0.0000 0.0000 94.9054 -0.4335 -13.5203 -8.1221 13.7506 -0.9809 0.0000 0.0000 40.1676 -13.7571 11.4727 -2.7879 7.1250 -0.0000 -0.0000 9.3730 -18.2673 6.0441
9.6763 16.5045 3.0456 173.6630 64.9898 -170.4510 0.0000 0.0000 0.0000 -22.3518 -14.3803 -12.2319 1.7075 8.2282 23.4094 1.6468 4.6059 -26.2674 0.1277 2.3036 6.3454 0.0000 0.0000 0.0000 17.7837 13.0347 -26.3603 -2.7124 -10.2142 29.6731 -0.1760 -11.1312 -18.1747 -0.3835 3.9768 -11.0114 -5.8078 -0.0906 -13.6641 -0.5391 0.9887 -5.2019 2.8667 0.6890 2.0902 -3.1992 1.4141 5.6714 4.3938 1.8852 -4.0306 1.9023 0.8687 -2.3558 -0.0000 -0.0000 0.0000 -93.6690 -3.0379 -16.1850 6.4958 -11.0864 -0.6311 -0.0000 -0.0000 55.1844 6.1275 23.5402 2.4552 -7.1250 0.0000 -0.0000 -23.4158 52.0883 -4.2796 -0.0000 -0.0000 0.0000 94.9227 -0.5584 -13.5158 -8.2683 13.9868 -1.0160 0.0000 0.0000 40.0078 -13.7952 11.5113 -2.8052 7.1250 -0.0000 -0.0000 9.3455 -18.2260 6.0346
9.7231 16.4972 3.0519 173.9820 64.9595 -170.1060 0.0000 0.0000 0.0000 -22.1153 -14.2455 -12.5548 1.7979 8.4317 24.0332 1.6602 4.5836 -26.3514 0.1052 2.0914 5.7584 0.0000 0.0000 0.0000 18.0420 13.1278 -26.1477 -2.7032 -10.1983 29.6212 -0.1995 -11.2019 -18.5418 -0.4109 4.1151 -11.4007 -5.8197 -0.1261 -13.8588 -0.4262 0.9510 -5.1065 2.9907 0.6608 2.2962 -3.2380 1.4343 5.5853 4.3491 1.9128 -4.1665 1.8944 0.8847 -2.3860 0.0000 -0.0000 0.0000 -93.7886 -3.0158 -14.9281 6.6569 -11.3532 -0.6624 -0.0000 -0.0000 53.8262 6.0050 23.5971 2.4112 -7.1250 0.0000 -0.0000 -23.5631 52.1197 -4.3278 0.0000 -0.0000 0.0000 94.7236 -0.4482 -13.7943 -8.1841 13.8508 -0.9957 0.0000 0.0000 40.3498 -14.0706 11.8966 -2.9577 7.1250 -0.0000 -0.0000 9.1466 -17.8180 5.9861
9.7699 16.4883 3.0623 174.4420 64.8244 -169.7000 0.0000 0.0000 0.0000 -21.7934 -14.0024 -12.9488 1.9083 8.6723 24.7755 1.7076 4.2928 -26.5384 0.0703 1.7109 4.7075 0.0000 0.0000 0.0000 18.3816 13.2505 -25.8560 -2.6982 -10.1897 29.5934 -0.2044 -11.4273 -18.8721 -0.3917 4.0185 -11.1287 -5.8244 -0.2043 -13.8275 -0.2564 0.8366 -5.0783 3.1540 0.6021 2.3164 -3.3804 1.5489 5.7749 4.3790 2.0609 -4.4667 1.9265 0.9569 -2.5310 0.0000 -0.0000 0.0000 -93.8421 -2.7917 -12.5949 6.8273 -11.6347 -0.6964 -0.0000 -0.0000 51.3943 5.7424 23.6781 2.3126 -7.1250 0.0000 -0.0000 -23.8559 52.1495 -4.4049 0.0000 -0.0000 0.0000 94.4616 -0.3736 -14.2195 -8.0438 13.6239 -0.9624 0.0000 0.0000 40.7307 -14.1979 12.1894 -3.0578 7.1250 -0.0000 -0.0000 9.0540 -17.5125 5.9854
9.8154 16.4788 3.0722 174.7010 64.6497 -169.4370 0.0000 0.0000 0.0000 -21.5499 -13.7733 -13.4289 2.0335 8.9356 25.5941 1.7496 3.9258 -26.6518 0.0352 1.2105 3.3282 0.0000 0.0000 0.0000 18.6254 13.3227 -25.6352 -2.6946 -10.1834 29.5726 -0.2177 -11.5674 -19.1937 -0.3719 3.9168 -10.8426 -5.8393 -0.2517 -13.6988 -0.1711 0.7648 -5.1560 3.2382 0.5747 2.1704 -3.2690 1.5442 5.9258 4.2545 2.0556 -4.5889 1.8661 0.9538 -2.5951 -0.0000 -0.0000 0.0000 -93.8522 -2.5420 -11.0226 6.9331 -11.8091 -0.7179 -0.0000 -0.0000 49.8060 5.5393 23.5734 2.2211 -7.1250 0.0000 -0.0000 -23.9880 52.0200 -4.3528 -0.0000 -0.0000 0.0000 94.2713 -0.4549 -14.5604 -7.9299 13.4391 -0.9358 0.0000 0.0000 40.7804 -14.2566 12.2246 -3.0797 7.1250 -0.0000 -0.0000 9.0128 -17.4728 5.9654
9.8618 16.4727 3.0779 174.8120 64.4647 -169.3300 0.0000 0.0000 0.0000 -21.3901 -13.5241 -13.9232 2.1779 9.2272 26.5087 1.7660 3.6317 -26.6245 0.0169 0.8394 2.3069 0.0000 0.0000 0.0000 18.7913 13.3340 -25.4191 -2.6907 -10.1767 29.5507 -0.2501 -11.5069 -19.4866 -0.3002 3.5226 -9.7374 -5.7447 -0.2497 -13.5414 -0.2111 0.7471 -5.2262 3.1370 0.5723 2.0162 -3.0251 1.4348 5.7525 4.0887 1.9204 -4.4869 1.7720 0.8893 -2.5152 0.0000 0.0000 0.0000 -93.8630 -2.4548 -10.8150 7.0000 -11.9192 -0.7316 -0.0000 -0.0000 49.5800 5.3876 23.4349 2.1480 -7.1250 0.0000 -0.0000 -24.0526 51.8684 -4.2731 0.0000 0.0000 0.0000 94.2299 -0.6500 -14.4448 -7.9564 13.4822 -0.9419 0.0000 0.0000 40.3657 -14.2563 12.0656 -3.0402 7.1250 -0.0000 -0.0000 9.0151 -17.6343 5.9346
